<svg width="64" height="64" viewBox="0 0 64 64" fill="none" xmlns="http://www.w3.org/2000/svg">
<path d="M7.97802 43.5747C8.3701 44.5638 8.45738 45.6475 8.22867 46.6865L5.38891 55.4591C5.29741 55.904 5.32107 56.3648 5.45764 56.798C5.59421 57.2312 5.83917 57.6223 6.16929 57.9343C6.49941 58.2462 6.90374 58.4687 7.34394 58.5805C7.78415 58.6924 8.24563 58.69 8.68463 58.5735L17.7852 55.9124C18.7657 55.7179 19.7811 55.8029 20.7156 56.1577C26.4095 58.8167 32.8595 59.3793 38.9278 57.7461C44.996 56.113 50.2925 52.3891 53.8826 47.2314C57.4728 42.0738 59.126 35.8138 58.5505 29.5561C57.975 23.2983 55.2078 17.4449 50.7372 13.0285C46.2666 8.61219 40.3798 5.91673 34.1155 5.41773C27.8512 4.91873 21.6119 6.64825 16.4985 10.3012C11.3851 13.9541 7.72613 19.2956 6.16723 25.3833C4.60833 31.4711 5.24964 37.9138 7.97802 43.5747Z" stroke="white" stroke-width="5.33288" stroke-linecap="round" stroke-linejoin="round"/>
</svg>
