<svg width="59" height="59" viewBox="0 0 59 59" fill="none" xmlns="http://www.w3.org/2000/svg">
<path d="M55.9952 29.3309H49.3825C48.2171 29.3284 47.0831 29.7077 46.1537 30.4107C45.2244 31.1138 44.5509 32.1019 44.2362 33.2239L37.9701 55.5153C37.9297 55.6538 37.8455 55.7754 37.7301 55.862C37.6147 55.9485 37.4744 55.9953 37.3302 55.9953C37.1859 55.9953 37.0456 55.9485 36.9302 55.862C36.8148 55.7754 36.7306 55.6538 36.6902 55.5153L21.9715 3.14646C21.9311 3.008 21.8469 2.88637 21.7315 2.79983C21.6161 2.71329 21.4758 2.6665 21.3315 2.6665C21.1873 2.6665 21.0469 2.71329 20.9316 2.79983C20.8162 2.88637 20.732 3.008 20.6916 3.14646L14.4254 25.4379C14.112 26.5555 13.4425 27.5404 12.5186 28.243C11.5946 28.9456 10.4666 29.3276 9.30588 29.3309H2.66644" stroke="white" stroke-width="5.33288" stroke-linecap="round" stroke-linejoin="round"/>
</svg>
