<svg width="40" height="40" viewBox="0 0 40 40" fill="none" xmlns="http://www.w3.org/2000/svg">
<path d="M18.3318 3.33301V6.66606" stroke="white" stroke-width="3.33305" stroke-linecap="round" stroke-linejoin="round"/>
<path d="M8.33252 3.33301V6.66606" stroke="white" stroke-width="3.33305" stroke-linecap="round" stroke-linejoin="round"/>
<path d="M8.33258 4.99951H6.66606C5.78208 4.99951 4.9343 5.35067 4.30924 5.97574C3.68417 6.60081 3.33301 7.44858 3.33301 8.33256V14.9987C3.33301 17.6506 4.38649 20.1939 6.26169 22.0691C8.13689 23.9443 10.6802 24.9978 13.3322 24.9978C15.9841 24.9978 18.5274 23.9443 20.4026 22.0691C22.2778 20.1939 23.3313 17.6506 23.3313 14.9987V8.33256C23.3313 7.44858 22.9801 6.60081 22.3551 5.97574C21.73 5.35067 20.8822 4.99951 19.9983 4.99951H18.3317" stroke="white" stroke-width="3.33305" stroke-linecap="round" stroke-linejoin="round"/>
<path d="M13.3323 24.9981C13.3323 27.65 14.3858 30.1934 16.261 32.0686C18.1362 33.9438 20.6795 34.9973 23.3314 34.9973C25.9834 34.9973 28.5267 33.9438 30.4019 32.0686C32.2771 30.1934 33.3306 27.65 33.3306 24.9981V19.9985" stroke="white" stroke-width="3.33305" stroke-linecap="round" stroke-linejoin="round"/>
<path d="M33.3306 19.9981C35.1714 19.9981 36.6637 18.5059 36.6637 16.6651C36.6637 14.8243 35.1714 13.332 33.3306 13.332C31.4898 13.332 29.9976 14.8243 29.9976 16.6651C29.9976 18.5059 31.4898 19.9981 33.3306 19.9981Z" stroke="white" stroke-width="3.33305" stroke-linecap="round" stroke-linejoin="round"/>
</svg>
