<svg width="64" height="64" viewBox="0 0 64 64" fill="none" xmlns="http://www.w3.org/2000/svg">
<path d="M53.3288 34.6636C53.3288 47.9958 43.9963 54.6619 32.9039 58.5282C32.323 58.725 31.6921 58.7156 31.1174 58.5015C19.9983 54.6619 10.6658 47.9958 10.6658 34.6636V15.9985C10.6658 15.2913 10.9467 14.6131 11.4468 14.113C11.9468 13.613 12.625 13.3321 13.3322 13.3321C18.6651 13.3321 25.3312 10.1323 29.9708 6.07934C30.5357 5.59672 31.2543 5.33154 31.9973 5.33154C32.7403 5.33154 33.4589 5.59672 34.0238 6.07934C38.69 10.159 45.3295 13.3321 50.6624 13.3321C51.3695 13.3321 52.0478 13.613 52.5478 14.113C53.0479 14.6131 53.3288 15.2913 53.3288 15.9985V34.6636Z" stroke="white" stroke-width="5.33288" stroke-linecap="round" stroke-linejoin="round"/>
</svg>
