<svg width="20" height="20" viewBox="0 0 20 20" fill="none" xmlns="http://www.w3.org/2000/svg">
<path d="M11.5257 13.8055C11.6978 13.8845 11.8916 13.9026 12.0754 13.8567C12.2591 13.8108 12.4217 13.7037 12.5364 13.553L12.8322 13.1655C12.9874 12.9585 13.1887 12.7906 13.4201 12.6749C13.6516 12.5591 13.9067 12.4989 14.1654 12.4989H16.6652C17.1072 12.4989 17.5311 12.6745 17.8436 12.987C18.1562 13.2996 18.3317 13.7234 18.3317 14.1654V16.6652C18.3317 17.1072 18.1562 17.5311 17.8436 17.8436C17.5311 18.1562 17.1072 18.3317 16.6652 18.3317C12.6873 18.3317 8.87233 16.7515 6.05953 13.9387C3.24672 11.1259 1.6665 7.31094 1.6665 3.33303C1.6665 2.89104 1.84208 2.46715 2.15462 2.15462C2.46715 1.84208 2.89104 1.6665 3.33303 1.6665H5.83282C6.27481 1.6665 6.69869 1.84208 7.01123 2.15462C7.32376 2.46715 7.49934 2.89104 7.49934 3.33303V5.83282C7.49934 6.09153 7.4391 6.3467 7.3234 6.57811C7.2077 6.80951 7.03971 7.0108 6.83273 7.16604L6.44276 7.45851C6.28979 7.57531 6.18197 7.74147 6.13761 7.92876C6.09326 8.11605 6.11511 8.31292 6.19945 8.48592C7.33825 10.7989 9.21121 12.6696 11.5257 13.8055Z" stroke="#4A90E2" stroke-width="1.66652" stroke-linecap="round" stroke-linejoin="round"/>
</svg>
